<?xml version="1.0" standalone="no"?>
<!DOCTYPE svg PUBLIC "-//W3C//DTD SVG 20010904//EN"
 "http://www.w3.org/TR/2001/REC-SVG-20010904/DTD/svg10.dtd">
<svg version="1.0" xmlns="http://www.w3.org/2000/svg"
 width="552.000000pt" height="452.000000pt" viewBox="0 0 552.000000 452.000000"
 preserveAspectRatio="xMidYMid meet">
<metadata>
Created by potrace 1.16, written by Peter Selinger 2001-2019
</metadata>
<g transform="translate(0.000000,452.000000) scale(0.100000,-0.100000)"
fill="#000000" stroke="none">
<path d="M4642 4150 c-16 -7 -22 -16 -20 -32 3 -20 -3 -24 -37 -29 -53 -7
-116 -41 -157 -83 l-33 -34 -140 -7 c-155 -8 -191 -19 -217 -66 -17 -28 -18
-74 -18 -549 0 -327 4 -539 11 -572 13 -67 47 -153 76 -197 13 -19 23 -46 23
-60 0 -23 -9 -30 -76 -60 -118 -53 -271 -160 -372 -260 -51 -50 -92 -93 -92
-97 0 -3 27 -32 60 -64 32 -32 76 -80 96 -107 20 -26 39 -50 43 -53 17 -12 48
-79 41 -86 -13 -15 -51 -125 -66 -194 -26 -119 -18 -223 31 -410 20 -76 15
-197 -12 -258 -43 -100 -68 -142 -85 -142 -9 0 -19 4 -22 9 -7 11 -139 75
-191 92 -22 7 -52 24 -67 37 -14 13 -30 23 -34 22 -18 -4 -13 17 11 42 14 15
25 30 25 33 0 4 13 25 29 48 24 36 83 153 111 222 24 59 59 201 70 282 24 172
-28 367 -134 512 -36 49 -144 151 -159 151 -5 0 10 21 32 47 49 55 58 82 40
125 -14 35 -97 118 -116 118 -16 0 -16 17 -3 57 12 32 1 73 -25 99 -13 13 -15
80 -15 473 0 342 -3 460 -12 469 -7 7 -24 12 -38 12 -15 0 -33 10 -44 25 -10
14 -25 25 -32 25 -8 0 -14 4 -14 8 0 10 -103 45 -175 61 -163 34 -292 39 -455
16 -140 -20 -180 -29 -220 -48 -18 -9 -38 -17 -45 -17 -6 0 -30 -16 -52 -35
-23 -19 -50 -35 -60 -35 -43 0 -43 -2 -43 -516 0 -270 4 -504 9 -520 5 -16 14
-49 22 -74 7 -25 18 -52 24 -60 33 -42 43 -86 38 -160 -5 -74 -5 -76 21 -88
25 -11 26 -15 26 -97 0 -81 -1 -86 -25 -97 -29 -13 -32 -41 -14 -131 11 -55
13 -57 45 -57 18 0 35 4 39 10 11 18 -13 164 -30 176 -11 9 -13 14 -5 19 8 5
11 37 9 94 -1 47 0 93 3 101 4 8 9 24 12 34 7 19 7 19 24 0 10 -10 24 -37 31
-59 8 -22 33 -66 57 -98 24 -31 44 -61 44 -65 0 -5 -11 -31 -25 -59 -33 -69
-65 -162 -65 -190 0 -12 -4 -25 -10 -28 -6 -4 -10 6 -10 24 0 26 -15 50 -25
39 -2 -2 2 -31 9 -65 10 -45 10 -63 2 -67 -7 -3 -7 -8 3 -14 11 -8 10 -12 -5
-22 -16 -10 -16 -11 -1 -6 9 3 17 1 17 -4 0 -6 -4 -10 -9 -10 -21 0 -19 -35 3
-79 14 -25 27 -63 31 -84 17 -104 105 -323 167 -414 15 -23 28 -44 28 -47 0
-3 11 -17 25 -32 30 -32 32 -44 6 -44 -10 0 -25 -10 -34 -23 -8 -12 -34 -28
-58 -35 -47 -14 -253 -115 -275 -135 -33 -29 -44 -37 -54 -37 -5 0 -10 -4 -10
-8 0 -4 -14 -16 -32 -27 -18 -10 -45 -31 -60 -47 -15 -15 -32 -28 -38 -28 -6
0 -39 18 -74 40 -35 22 -68 40 -75 40 -16 0 -14 15 11 68 19 43 25 62 46 144
4 15 26 47 50 73 23 25 42 48 42 50 0 3 15 27 33 53 43 62 70 119 103 217 26
75 28 91 27 245 0 153 -2 171 -27 245 -55 162 -101 233 -230 360 -50 50 -112
100 -136 113 -79 40 -83 46 -75 92 9 53 9 1000 0 1031 -12 44 -38 99 -47 99
-4 0 -8 5 -8 11 0 12 -64 79 -76 79 -4 0 -15 6 -23 13 -9 8 -50 20 -91 26
-104 18 -269 58 -316 77 -44 17 -191 82 -215 94 -41 21 -149 40 -227 40 -94 0
-144 -13 -182 -47 -14 -13 -28 -23 -32 -23 -3 0 -23 -24 -44 -52 -21 -29 -44
-57 -50 -63 -22 -18 -53 -84 -49 -104 3 -14 -1 -18 -11 -14 -8 3 -14 2 -13 -3
1 -5 -7 -31 -19 -57 -12 -27 -19 -54 -15 -59 3 -6 1 -8 -4 -5 -11 7 -19 -32
-31 -138 -11 -105 -7 -256 10 -350 33 -184 141 -235 202 -95 14 33 15 18 16
-205 0 -243 7 -313 44 -415 12 -34 16 -85 16 -213 0 -93 -4 -176 -9 -185 -5
-9 -12 -39 -15 -67 -3 -27 -9 -70 -12 -94 -5 -31 -3 -42 5 -37 6 4 8 12 5 18
-5 7 -2 8 5 4 9 -6 8 -13 -5 -27 -14 -16 -17 -36 -16 -104 2 -71 20 -177 35
-203 3 -4 8 -178 12 -387 4 -209 8 -381 10 -383 1 -2 20 13 41 32 22 20 47 39
57 42 9 3 17 10 17 15 0 5 5 9 12 9 6 0 25 10 42 23 17 12 48 31 70 42 37 20
39 20 50 1 6 -10 26 -41 43 -67 18 -27 33 -52 33 -57 0 -5 -11 -18 -25 -30
-36 -32 -36 -102 1 -131 15 -12 38 -21 52 -21 24 0 24 -1 9 -18 -23 -25 -31
-71 -18 -104 13 -35 65 -62 102 -54 28 5 29 4 29 -34 0 -41 17 -66 57 -81 31
-12 82 0 96 22 14 22 27 25 27 6 0 -26 44 -52 88 -52 38 0 47 5 72 35 16 19
30 30 30 24 0 -25 120 -49 120 -24 0 6 6 10 14 10 19 0 40 54 32 85 -6 22 -3
25 20 25 21 0 25 -4 19 -17 -6 -17 -18 -73 -31 -155 l-7 -38 1977 0 1976 0 0
1100 0 1099 -23 23 c-60 59 -128 110 -232 176 -24 15 -160 80 -194 93 -20 8
-22 14 -17 41 3 18 10 34 15 38 8 4 41 72 69 142 17 41 21 153 28 684 6 544 5
558 -57 644 -80 110 -241 142 -366 72 -20 -11 -23 -9 -35 15 -15 31 -32 37
-66 23z m-3527 -2033 c30 -20 97 -37 144 -37 l41 0 0 -49 0 -48 73 -7 c174
-17 347 -117 448 -261 53 -75 115 -215 106 -238 -3 -8 -1 -19 5 -25 17 -17 23
-194 8 -249 -17 -67 -31 -103 -40 -103 -4 0 -11 26 -15 58 -7 55 -48 180 -63
192 -4 3 -14 19 -22 35 -25 49 -152 168 -211 196 -80 39 -128 57 -187 68 -148
30 -312 -9 -453 -106 -150 -105 -249 -300 -249 -491 0 -36 -4 -61 -9 -58 -5 4
-11 1 -13 -6 -3 -7 -7 -5 -11 6 -4 10 -3 15 3 11 6 -3 10 -1 10 5 0 6 -7 13
-16 17 -8 3 -13 12 -10 20 3 7 -1 16 -9 19 -8 4 -15 12 -15 20 0 8 -4 22 -9
32 -4 9 -15 31 -23 47 -9 17 -13 36 -11 43 3 6 0 12 -7 12 -6 0 -9 4 -6 8 2 4
-3 53 -13 109 -9 56 -14 100 -10 97 4 -2 9 12 12 32 3 19 19 51 35 72 54 69
76 130 80 217 4 74 7 83 40 125 53 65 54 66 97 80 38 12 82 48 102 84 10 18
138 85 163 86 9 0 24 -6 35 -13z m2305 -1297 c0 -14 -5 -31 -12 -38 -9 -9 -8
-12 5 -12 25 0 41 -38 28 -67 -9 -19 -8 -29 5 -48 13 -19 13 -27 2 -44 -7 -12
-22 -21 -33 -21 -11 0 -26 9 -33 21 -11 17 -11 25 2 44 14 21 14 26 1 39 -17
17 -20 52 -4 61 6 5 3 13 -10 22 -26 18 -28 68 -4 81 24 14 53 -7 53 -38z
m-1810 -424 c0 -3 -9 -6 -20 -6 -49 0 -99 -65 -85 -109 6 -19 2 -21 -34 -21
-34 0 -45 -5 -67 -34 -27 -33 -27 -34 -47 -15 -27 25 -87 25 -119 0 l-24 -20
-33 36 c-28 30 -37 35 -70 31 -32 -3 -37 0 -33 14 10 41 -47 108 -92 108 -15
0 -14 3 3 21 l19 21 69 -35 c104 -54 148 -67 218 -67 84 0 220 46 269 92 16
14 21 15 32 3 8 -7 14 -16 14 -19z"/>
</g>
</svg>
